<svg height="100%" width="100%" id="svg" viewBox="0 0 1440 400" xmlns="http://www.w3.org/2000/svg" class="transition duration-300 ease-in-out delay-150"><defs><linearGradient id="gradient"><stop offset="5%" stop-color="#fab741ff"></stop><stop offset="95%" stop-color="#f78da7ff"></stop></linearGradient></defs><path d="M 0,400 C 0,400 0,200 0,200 C 45.64618509382542,216.47686725610436 91.29237018765085,232.9537345122087 133,241 C 174.70762981234915,249.0462654877913 212.47670434322208,248.66192920726948 257,220 C 301.5232956567779,191.33807079273052 352.80081243946097,134.39854865871342 396,148 C 439.19918756053903,161.60145134128658 474.3200458989338,245.7438761578768 511,266 C 547.6799541010662,286.2561238421232 585.9190039648037,242.62594670977953 635,230 C 684.0809960351963,217.37405329022047 744.0039382418512,235.75233700300504 792,247 C 839.9960617581488,258.24766299699496 876.0652430677914,262.3647052782003 912,253 C 947.9347569322086,243.63529472179968 983.7350894869837,220.78884188419372 1025,189 C 1066.2649105130163,157.21115811580628 1112.9943989842734,116.47992718502479 1162,127 C 1211.0056010157266,137.5200728149752 1262.2873145759218,199.2914493757072 1309,220 C 1355.7126854240782,240.7085506242928 1397.8563427120391,220.3542753121464 1440,200 C 1440,200 1440,400 1440,400 Z" stroke="none" stroke-width="0" fill="url(#gradient)" class="transition-all duration-300 ease-in-out delay-150"></path></svg>
